# xmcd
#
# Track frame offsets: 
#        150
#        16543
#        33189
#        50356
#        70482
#        88930
#        104551
#        119386
#        142631
#        157729
#        176737
#        192836
#        214199
#
# Disc length: 3261 seconds
#
# Revision: 0
# Processed by: cddbd v1.5.2PL0 Copyright (c) Steve Scherf et al.
# Submitted via: ExactAudioCopy v0.99pb4
#
DISCID=a70cbb0d
DTITLE=Davisson Brothers Band - Davisson Brothers Band
DYEAR=2009
DGENRE=Country
TTITLE0=Foot Stompin'
TTITLE1=Big City Hillbilly
TTITLE2=Train
TTITLE3=The One You Left Behind
TTITLE4=Whiskey Song
TTITLE5=Jump On It
TTITLE6=Muttontown Love
TTITLE7=Found Dead In A Fence Line
TTITLE8=Left Over Biscuits
TTITLE9=Horses
TTITLE10=Blue Ridge Cabin Home
TTITLE11=That's Country
TTITLE12=Chicken Train (Bonus Cut - Live In The Studio)
EXTD=
EXTT0=
EXTT1=
EXTT2=
EXTT3=
EXTT4=
EXTT5=
EXTT6=
EXTT7=
EXTT8=
EXTT9=
EXTT10=
EXTT11=
EXTT12=
PLAYORDER=
